<?xml version="1.0" encoding="utf-8"?>
<svg version="1.1" id="Layer_1" xmlns="http://www.w3.org/2000/svg" xmlns:xlink="http://www.w3.org/1999/xlink" x="0px" y="0px"
	 viewBox="0 0 1422.176 1648.38" enable-background="new 0 0 1422.176 1648.38" xml:space="preserve">
<path d="M342.261,24.19c-1.234,28.856-34.852,50.448-59.143,73.519c-51.678,49.079-21.468,102.635-24.051,129.299
	c14.996-23.635,29.234-47.759,42.096-72.623c3.797-7.188,6.754-14.977,12.252-21.112c15.005-17.315,39.13-25.954,61.739-23.044
	c-4.287,28.905-29.991,67.911-49.811,89.55c-9.198,10.531-31.227,19.867-31.174,72.614c0.661,44.258,17.102,97.33,33.946,138.28
	c6.761,17.32,12.459,70.579,147.196,120.937c-45.03-40.089-62.933-72.27-73.214-93.274c-12.235-25.494-26.471-63.569-19.191-90.991
	c105.56,21.502,96.411,219.44,167.541,189.79c-17.536-77.561-25.814-101.896-9.055-127.395
	c11.539,10.508,8.509,18.264,30.472,68.576c36.886,81.72,54.33,93.862,92.387,104.352c34.713,9.323,71.265,9.295,106.773,5.405
	c5.109-0.277,9.591-2.984,14.136-5.063c22.323-10.983,35.749-23.869,66.202-91.934c23.137-53.183,19.821-62.336,31.664-73.464
	c15.752,22.925,11.145,46.85-7.678,127.46c71.843,27.814,58.978-166.661,165.435-191.684c11.478,40.156-23.35,128.19-90.298,185.134
	c46.327-16.405,124.066-56.28,140.303-106.579c2.348-10.503,74.244-171.38,13.61-219.264
	c-23.052-20.877-53.243-65.013-58.496-96.406c23.505-3.271,48.896,5.895,63.827,24.577c0,0,26.033,48.279,53.543,90.936
	c-3.121-17.256,16.986-62.872-4.426-103.899c-19.26-34.828-79.29-59.818-81.004-97.977c31.132,9.46,61.86,34.666,91.61,53.174
	c4.391,3.013-1.113-12.046,52.73,125.363c-38.31,92.334-41.744,93.114-43.001,112.982c27.053-27.636,53.931-55.447,80.929-83.138
	c5.419-5.815,30.823-81.803,30.823-132.311c0.516,37.938,79.388,75.863-63.143,231.562c70.255-15.333,98.184-26.601,121.593-12.169
	c-2.421-38.594,9.369-77.807,32.329-108.888c1.136,35.785-1.756,71.681-7.826,106.957c-3.527,18.401-5.013,36.236-23.238,47.861
	c-49.977,31.94-77.425-20.348-195.935,109.018c-3.881,4.195-8.186,8.75-9.018,14.645c-2.957,17.94,71.966,20.511,116.705-26.416
	c-6.227,19.523-12.455,39.056-18.655,58.588c-0.176,1.646,11.07-1.512-185.069,44.507c-52.088,11.2-166.682,40.821-178.111,92.784
	c-1.848,8.343-1.719,10.764,0.12,3.603c61.216-41.024,150.377-74.502,213.582-35.415c-0.222,6.117-2.753,11.808-4.629,17.546
	c-43.688,117.988-65.823,134.683-117.953,134.057c-142.372-2.628-82.479-7.714-112.871,68.133
	c-2.171,5.821-5.202,11.254-7.706,16.927c1.908,35.758,0.771,65.946,23.025,93.865c43.461,54.984,87.923,19.138,116.456,77.492
	c6.729,17.503,2.236,42.045,8.962,55.345c-21.621-30.333-55.373-51.751-92.026-58.403c-8.667,13.32-1.833,31.397,10.127,42.012
	c15.731,14.268,74.496,34.243,75.654,104.259c-11.743-23.293-33.161-41.56-58.265-48.868
	c45.127,41.985,48.331,117.129,37.531,160.575c-2.747-40.102-27.613-65.709-58.727-90.88
	c27.807,43.485,25.906,105.051,18.572,156.463c0.074-23.663-10.93-47.15-29.058-62.358c-20.788,39.852-6.727,83.287,23.284,117.01
	c-19.84-6.495-34.098-27.431-43.472-46.179c8.482,23.813,11.138,49.672-7.068,67.199c0.388-24.134-16.382-47.649-39.767-54.19
	c9.48,21.159,12.242,45.135,8.473,67.976c-6.482,38.408-27.619,42.721-35.683,68.124c3.52-26.195,2.706-50.835-15.966-76.652
	c-49.542,38.483-32.021,106.199-35.194,134.205c-16.839-13.375-35.313-71.262-24.79-96.655
	c-31.761,46.091-5.297,59.747-20.955,104.065c-5.488,15.68-15.402,29.696-27.987,40.506c17.16-47.604-6.515-118.398-26.49-160.621
	c-1.177,57.395-33.298,78.096-35.249,96.859c-1.24-56.249-11.968-94.163-33.189-145.819c12.367,42.028-3.172,66.612-23.82,73.02
	c12.965-9.156,14.626-26.094,9.267-39.379c-6.386-16.5-13.984-18.988-27.774-44.461c-7.763-15.216-34.839-70.515-31.812-87.434
	c-18.467,17.741-18.444,38.709-19.764,64.04c-29.914-21.152-46.444-90.998-3.585-138.982c-44.698,9.328-65.759,56.377-81.373,91.573
	c-17.151-21.554-14.963-44.775,0.176-68.502c34.475-53.795,74.397-53.391,80.541-131.063c-37.305,7.672-66.797,59.273-82.001,94.198
	c-9.691-31.99,4.361-68.28,28.421-92.257c18.441-18.972,71.853-54,71.792-130.398c-32.678-4.037-49.049,33.631-57.941,46.013
	c-10.137-78.276,136.205-113.141,132.255-174.36c-0.83-16.234-24.214-37.376-25.603-91.481c-0.41-9.283-22.571-9.759-31.747-10.201
	c-104.323-2.116-124.924,37.274-189.005-130.749c-1.903-5.59-4.5-11.134-4.657-17.121c85.159-53.988,213.763,30.716,214.284,34.344
	c2.014,6.819,1.321,0.813-1.395-8.925c-22.635-65.205-191.33-89.641-363.263-128.042c-6.44-19.865-13.157-39.638-19.616-59.494
	c27.358,28.181,68.918,42.206,107.678,35.101c7.882-1.029,15.434-8.178,1.968-22.545c-33.184-35.313-69.512-73.163-115.818-88.46
	c-29.469-10.198-71.346-4.91-92.257-27.857c-20.231-21.393-24.183-117.779-24.032-147.177
	c23.589,30.805,35.72,70.064,33.854,108.796c21.418-14.072,46.059-5.463,121.741,10.838c-22.193-23.746-44.599-47.732-61.425-75.709
	c-26.049-43.148-28.634-85.177-22.471-104.352c5.054-17.629,16.465-33.124,18.682-51.603
	c-2.458,41.663,25.605,126.983,32.117,133.041c27.1,27.386,54.366,54.606,81.465,81.992c-1.573-22.069-6.583-22.574-44.304-112.926
	c15.994-41.125,31.821-82.315,47.815-123.45C277.904,62.044,309.188,34.865,342.261,24.19z"/>
</svg>
